<?xml version="1.0" encoding="utf-8"?>
<svg xmlns="http://www.w3.org/2000/svg" viewBox="0 0 1920 350">
  <polygon style="fill: rgb(255, 255, 255); stroke: rgb(255, 255, 255);" points="-56.038 48.452 -18.896 21.016 91.869 27.879 236.067 33.99 360.739 43.156 504.577 50.245 622.889 44.084 730.528 44.052 910.331 43.172 1014.773 38.245 1111.368 37.253 1205.662 38.933 1331.462 32.294 1461.248 44.004 1538.988 44.949 1612.439 57.825 1717.457 44.052 1778.915 42.324 1897.128 36.485 1957.261 41.62 2000.86 27.911 2041.48 306.914 1949.293 350.41 1861.36 343.563 1726.002 339.516 1573.62 339.435 1485.54 332.589 1374.202 332.652 1248.004 329.261 1133.83 329.165 1047.51 327.454 952.699 325.902 858.66 334.413 756.488 339.435 606.438 336.797 520.215 342.747 455.42 333.5 333.858 331.853 230.621 330.926 82.804 340.011 -12.337 345.962 -125.37 296.644"/>
  <polygon style="stroke: rgb(0, 0, 0); fill: rgb(33, 0, 62);" points="-24.009 31.646 506.353 56.429 953.69 47.755 1329.155 42.798 1605.489 62.625 1783.928 50.233 2008.216 44.037 2010.694 352.588 1793.841 334.001 1054.062 315.413 741.793 334.001 382.436 325.327 192.845 317.892 46.624 338.958 -83.488 304.261"/>
</svg>