<?xml version="1.0" encoding="utf-8"?>
<svg xmlns="http://www.w3.org/2000/svg" viewBox="0 0 500 500">
  <path d="M 98.1 -5.835 C 95.432 17.484 95.021 35.024 95.671 46.942 C 96.389 60.023 104.746 97.385 123.492 116.936 C 135.125 129.035 153.284 145.998 218.094 144.572 C 252.933 143.752 308.734 125.795 343.671 140.668 C 356.904 146.265 375.521 163.172 386.709 185.01 C 397.907 206.867 402.924 235.694 391.39 269.62 C 386.997 282.625 380.721 290.459 368.621 295.727 C 356.474 301.016 338.544 304.503 310.903 306.805 C 294.027 308.212 274.249 312.049 257.412 318.681 C 240.566 325.316 226.545 333.986 221.248 346.663 C 208.882 376.633 216.354 407.313 244.519 443.604 C 254.146 456.009 281.143 477.006 305.862 483.336 C 334.296 490.616 361.134 482.177 378.612 480.189 C 411.284 476.472 432.871 487.877 447.422 507.052" style="stroke-miterlimit: 1; stroke: rgb(233, 118, 77); fill-opacity: 0; stroke-width: 9px;">
    <title>Ligne</title>
  </path>
</svg>