<?xml version="1.0" encoding="UTF-8" standalone="no"?>
<!-- Created with Inkscape (http://www.inkscape.org/) -->

<svg
   version="1.1"
   id="svg1"
   width="793.70667"
   height="559.37335"
   viewBox="0 0 793.70667 559.37335"
   sodipodi:docname="logo_orange.eps"
   xmlns:inkscape="http://www.inkscape.org/namespaces/inkscape"
   xmlns:sodipodi="http://sodipodi.sourceforge.net/DTD/sodipodi-0.dtd"
   xmlns="http://www.w3.org/2000/svg"
   xmlns:svg="http://www.w3.org/2000/svg">
  <defs
     id="defs1" />
  <sodipodi:namedview
     id="namedview1"
     pagecolor="#ffffff"
     bordercolor="#000000"
     borderopacity="0.25"
     inkscape:showpageshadow="2"
     inkscape:pageopacity="0.0"
     inkscape:pagecheckerboard="0"
     inkscape:deskcolor="#d1d1d1">
    <inkscape:page
       x="0"
       y="0"
       inkscape:label="1"
       id="page1"
       width="793.70667"
       height="559.37335"
       margin="0"
       bleed="0" />
  </sodipodi:namedview>
  <g
     id="g1"
     inkscape:groupmode="layer"
     inkscape:label="1">
    <g
       id="group-R5">
      <path
         id="path2"
         d="m 945.281,1031.16 -375.722,54.91 716.441,2213.18 565.86,-97.06 31.21,-2306.159 -394.72,59.598 -39.24,908.431 -184.06,29.77 -303.14,-862.67 h -16.629"
         style="fill:#ef7749;fill-opacity:1;fill-rule:evenodd;stroke:none"
         transform="matrix(0.13333333,0,0,-0.13333333,0,559.37333)" />
      <path
         id="path3"
         d="m 4223.85,1008.63 600.42,18.68 454.21,492.49 104.72,489.89 -654.34,528.24 -479.8,-211.1 -191.47,165.76 133.23,267.2 644.06,-101.72 76.3,426.03 -994.7,128.8 -310.6,-820.78 521.43,-498.33 524.95,148.86 265.4,-240.24 -304.09,-372.03 -496.11,2.96 106.39,-424.71"
         style="fill:#ef7749;fill-opacity:1;fill-rule:evenodd;stroke:none"
         transform="matrix(0.13333333,0,0,-0.13333333,0,559.37333)" />
      <path
         id="path4"
         d="M 2330,925.051 2295.96,3212.9 h 735.6 L 3333.86,2786.18 3021.48,2302 3485.01,2068.98 3726.85,1507.73 3263.32,925.051 H 2330"
         style="fill:#ef7749;fill-opacity:1;fill-rule:evenodd;stroke:none"
         transform="matrix(0.13333333,0,0,-0.13333333,0,559.37333)" />
    </g>
  </g>
</svg>
