<?xml version="1.0" encoding="utf-8"?>
<svg version="1.1" id="svg1" width="1500" height="400" viewBox="0 0 1500 400" xmlns="http://www.w3.org/2000/svg">
  <g id="g1" transform="matrix(1, 0, 0, 1, 31.464554, -66.184059)">
    <g id="group-R5">
      <path id="path2" d="M 54.033 380.262 L 15.205 374.587 L 89.245 145.871 L 147.721 155.902 L 150.946 394.226 L 110.156 388.066 L 106.1 294.187 L 87.08 291.11 L 55.752 380.262 L 54.033 380.262" style="fill:#ef7749;fill-opacity:1;fill-rule:evenodd;stroke:none"/>
      <g transform="matrix(1.886271, 0, 0, 1.886271, -777.353271, -142.308762)" style="">
        <title>Baseline</title>
        <path id="path3" d="M 877.825 262.126 C 881.107 262.126 883.411 263.767 883.585 266.107 L 871.543 266.107 C 872.101 263.733 874.544 262.126 877.825 262.126 Z M 885.784 271.446 L 883.027 270.819 C 882.049 272.076 880.269 272.808 878.244 272.808 C 874.893 272.808 872.171 270.924 871.577 268.305 L 886.099 268.305 L 886.099 266.107 C 885.68 261.917 881.944 258.288 877.86 258.288 C 873.079 258.288 869.135 262.162 869.135 266.874 C 869.135 272.598 872.52 276.298 877.756 276.298 C 882.119 276.298 884.667 274.762 885.784 271.446" style="fill:#ef7749;fill-opacity:1;fill-rule:nonzero;stroke:none"/>
        <path id="path4" d="M 897.932 276.298 L 897.932 273.226 L 896.571 273.226 L 895.244 272.249 L 895.244 264.989 L 895.279 265.302 C 895.279 263.591 896.989 262.614 899.991 262.614 C 902.957 262.614 904.668 263.591 904.668 265.302 L 904.668 272.249 L 904.599 272.249 L 903.307 273.226 L 901.911 273.226 L 901.911 276.262 L 910.044 276.262 L 910.044 273.226 L 908.648 273.226 L 907.321 272.249 L 907.321 264.989 C 907.321 260.974 905.157 258.739 901.771 258.739 C 900.584 258.739 899.048 259.054 898.036 259.473 L 895.244 262.51 L 895.244 259.333 L 892.765 258.321 L 889.868 259.822 L 889.868 261.289 L 892.521 262.23 L 892.521 272.214 L 891.089 273.226 L 889.589 273.226 L 889.589 276.298 L 897.932 276.298" style="fill:#ef7749;fill-opacity:1;fill-rule:nonzero;stroke:none"/>
        <path id="path5" d="M 923.831 276.298 L 933.047 276.298 L 933.047 273.332 L 931.545 273.332 L 930.149 272.285 L 930.149 262.721 L 943.483 262.721 L 943.483 272.285 L 942.052 273.332 L 940.621 273.332 L 940.621 276.298 L 949.487 276.298 L 949.487 273.402 L 948.021 273.402 L 946.485 272.285 L 946.485 254.134 L 947.985 253.051 L 949.836 253.051 L 949.836 250.12 L 940.621 250.12 L 940.621 253.051 L 942.087 253.051 L 943.483 254.098 L 943.483 259.265 L 930.149 259.265 L 930.149 254.063 L 931.545 253.016 L 933.047 253.016 L 933.047 250.12 L 923.831 250.12 L 923.831 253.016 L 925.716 253.016 L 927.147 254.063 L 927.147 272.285 L 925.751 273.332 L 923.831 273.332 L 923.831 276.298" style="fill:#ef7749;fill-opacity:1;fill-rule:nonzero;stroke:none"/>
        <path id="path6" d="M 962.297 276.123 L 965.299 272.807 L 965.299 275.983 L 970.5 275.983 L 970.5 273.087 L 969.139 273.087 L 968.196 272.319 L 968.196 262.475 C 968.196 259.753 965.264 257.903 961.704 257.903 C 960.237 257.903 958.912 258.706 958.004 259.508 L 955.98 261.463 L 957.585 262.58 C 958.597 262.022 960.761 261.323 962.123 261.323 C 964.112 261.323 965.299 262.056 965.299 263.312 L 965.299 265.372 L 960.133 265.512 C 959.889 265.512 959.016 265.617 958.423 265.722 C 955.247 266.244 953.676 267.886 953.676 270.712 C 953.676 274.378 955.944 276.298 960.273 276.298 C 960.867 276.298 961.564 276.229 962.297 276.123 Z M 956.153 269.806 L 956.153 269.387 C 956.153 268.235 958.563 267.571 962.856 267.571 L 965.299 267.571 L 965.299 270.259 C 964.915 271.446 963.031 272.319 960.587 272.319 C 957.935 272.319 956.153 271.306 956.153 269.806" style="fill:#ef7749;fill-opacity:1;fill-rule:nonzero;stroke:none"/>
        <path id="path7" d="M 978.319 262.406 L 979.68 261.429 L 980.763 261.429 L 980.763 258.322 L 972.769 258.322 L 972.769 261.358 L 974.2 261.358 L 975.561 262.335 L 975.561 269.735 C 975.561 274.029 978.075 276.298 982.892 276.298 C 987.673 276.298 990.221 274.029 990.221 269.735 L 990.221 262.301 L 991.548 261.358 L 992.631 261.358 L 992.631 258.322 L 984.707 258.322 L 984.707 261.358 L 986.137 261.358 L 987.464 262.335 L 987.464 268.723 C 987.464 271.062 985.684 272.529 982.892 272.529 C 979.995 272.529 978.284 271.062 978.284 268.723 L 978.284 262.335 L 978.319 262.406" style="fill:#ef7749;fill-opacity:1;fill-rule:nonzero;stroke:none"/>
        <path id="path8" d="M 997.343 268.34 C 997.343 273.61 999.647 276.298 1004.12 276.298 C 1007.78 276.298 1009.63 272.598 1009.63 268.305 L 1007.36 268.305 C 1007.36 270.888 1006.07 272.527 1004.01 272.527 L 1003.8 272.527 C 1001.39 272.527 1000.17 271.377 1000.17 268.34 L 1000.17 262.719 L 1008.83 262.719 L 1008.83 259.334 L 1000.17 259.334 L 1000.17 252.841 L 997.343 252.841 L 997.343 259.334 L 994.236 259.334 L 994.236 262.719 L 997.343 262.719 L 997.343 268.34" style="fill:#ef7749;fill-opacity:1;fill-rule:nonzero;stroke:none"/>
        <path id="path9" d="M 1021.32 262.126 C 1024.61 262.126 1026.92 263.767 1027.09 266.107 L 1015.04 266.107 C 1015.6 263.733 1018.04 262.126 1021.32 262.126 Z M 1029.29 271.446 L 1026.53 270.819 C 1025.56 272.076 1023.76 272.808 1021.74 272.808 C 1018.39 272.808 1015.67 270.924 1015.07 268.305 L 1029.6 268.305 L 1029.6 266.107 C 1029.18 261.917 1025.45 258.288 1021.35 258.288 C 1016.57 258.288 1012.63 262.162 1012.63 266.874 C 1012.63 272.598 1016.01 276.298 1021.25 276.298 C 1025.62 276.298 1028.17 274.762 1029.29 271.446" style="fill:#ef7749;fill-opacity:1;fill-rule:nonzero;stroke:none"/>
        <path id="path10" d="M 1044.6 269.471 L 1044.6 266.12 L 1034.62 266.12 L 1034.62 269.471 L 1044.6 269.471" style="fill:#ef7749;fill-opacity:1;fill-rule:nonzero;stroke:none"/>
        <path id="path11" d="M 1049.19 254.202 L 1050.23 252.946 L 1052.47 252.946 L 1052.47 249.978 L 1044.3 249.978 L 1044.3 252.946 L 1045.17 252.946 L 1046.11 254.098 L 1051.98 272.527 L 1053.13 276.298 L 1058.96 276.298 L 1060.04 272.598 L 1065.94 254.168 L 1066.88 253.015 L 1067.75 253.015 L 1067.75 250.049 L 1059.59 250.049 L 1059.59 253.015 L 1061.82 253.015 L 1062.87 254.273 L 1057.46 271.83 L 1054.49 271.83 L 1049.19 254.202" style="fill:#ef7749;fill-opacity:1;fill-rule:nonzero;stroke:none"/>
        <path id="path12" d="M 1076.48 251.62 L 1073.48 250.049 L 1070.41 251.62 L 1070.41 253.609 L 1073.44 255.18 L 1076.48 253.609 L 1076.48 251.62 Z M 1073.02 271.585 L 1071.56 272.633 L 1069.74 272.633 L 1069.74 276.298 L 1078.09 276.298 L 1078.09 272.633 L 1076.87 272.633 L 1075.47 271.585 L 1075.47 259.717 L 1073.23 258.461 L 1070.34 259.857 L 1070.34 261.533 L 1073.02 263.033 L 1073.02 271.585" style="fill:#ef7749;fill-opacity:1;fill-rule:nonzero;stroke:none"/>
        <path id="path13" d="M 1090.09 262.126 C 1093.38 262.126 1095.68 263.767 1095.86 266.107 L 1083.81 266.107 C 1084.37 263.733 1086.81 262.126 1090.09 262.126 Z M 1098.05 271.446 L 1095.3 270.819 C 1094.32 272.076 1092.54 272.808 1090.51 272.808 C 1087.16 272.808 1084.44 270.924 1083.85 268.305 L 1098.37 268.305 L 1098.37 266.107 C 1097.95 261.917 1094.21 258.288 1090.13 258.288 C 1085.35 258.288 1081.4 262.162 1081.4 266.874 C 1081.4 272.598 1084.79 276.298 1090.02 276.298 C 1094.39 276.298 1096.94 274.762 1098.05 271.446" style="fill:#ef7749;fill-opacity:1;fill-rule:nonzero;stroke:none"/>
        <path id="path14" d="M 1110.2 276.298 L 1110.2 273.226 L 1108.84 273.226 L 1107.51 272.249 L 1107.51 264.989 L 1107.55 265.302 C 1107.55 263.591 1109.26 262.614 1112.26 262.614 C 1115.23 262.614 1116.94 263.591 1116.94 265.302 L 1116.94 272.249 L 1116.87 272.249 L 1115.58 273.226 L 1114.18 273.226 L 1114.18 276.262 L 1122.31 276.262 L 1122.31 273.226 L 1120.92 273.226 L 1119.59 272.249 L 1119.59 264.989 C 1119.59 260.974 1117.43 258.739 1114.04 258.739 C 1112.85 258.739 1111.32 259.054 1110.3 259.473 L 1107.51 262.51 L 1107.51 259.333 L 1105.03 258.321 L 1102.14 259.822 L 1102.14 261.289 L 1104.79 262.23 L 1104.79 272.214 L 1103.36 273.226 L 1101.86 273.226 L 1101.86 276.298 L 1110.2 276.298" style="fill:#ef7749;fill-opacity:1;fill-rule:nonzero;stroke:none"/>
        <path id="path15" d="M 1133.97 276.298 L 1133.97 273.226 L 1132.61 273.226 L 1131.28 272.249 L 1131.28 264.989 L 1131.32 265.302 C 1131.32 263.591 1133.03 262.614 1136.03 262.614 C 1139 262.614 1140.71 263.591 1140.71 265.302 L 1140.71 272.249 L 1140.64 272.249 L 1139.35 273.226 L 1137.95 273.226 L 1137.95 276.262 L 1146.08 276.262 L 1146.08 273.226 L 1144.69 273.226 L 1143.36 272.249 L 1143.36 264.989 C 1143.36 260.974 1141.2 258.739 1137.81 258.739 C 1136.62 258.739 1135.09 259.054 1134.08 259.473 L 1131.28 262.51 L 1131.28 259.333 L 1128.8 258.321 L 1125.91 259.822 L 1125.91 261.289 L 1128.56 262.23 L 1128.56 272.214 L 1127.13 273.226 L 1125.63 273.226 L 1125.63 276.298 L 1133.97 276.298" style="fill:#ef7749;fill-opacity:1;fill-rule:nonzero;stroke:none"/>
        <path id="path16" d="M 1157.74 262.126 C 1161.02 262.126 1163.33 263.767 1163.5 266.107 L 1151.46 266.107 C 1152.02 263.733 1154.46 262.126 1157.74 262.126 Z M 1165.7 271.446 L 1162.94 270.819 C 1161.97 272.076 1160.19 272.808 1158.16 272.808 C 1154.81 272.808 1152.09 270.924 1151.49 268.305 L 1166.01 268.305 L 1166.01 266.107 C 1165.6 261.917 1161.86 258.288 1157.78 258.288 C 1152.99 258.288 1149.05 262.162 1149.05 266.874 C 1149.05 272.598 1152.44 276.298 1157.67 276.298 C 1162.03 276.298 1164.58 274.762 1165.7 271.446" style="fill:#ef7749;fill-opacity:1;fill-rule:nonzero;stroke:none"/>
        <path id="path17" d="M 707.445 234.724 L 707.445 231.652 L 706.084 231.652 L 704.757 230.675 L 704.757 223.415 L 704.792 223.728 C 704.792 222.019 706.503 221.042 709.504 221.042 L 710.063 221.042 C 711.355 221.111 712.472 221.46 713.239 221.983 L 714.775 218.144 C 713.903 217.411 712.716 217.027 711.32 217.027 C 710.936 217.027 710.516 217.062 710.063 217.132 C 709.226 217.236 708.178 217.551 707.55 217.9 L 704.757 220.936 L 704.757 217.76 L 702.279 216.748 L 699.381 218.248 L 699.381 219.715 L 702.035 220.658 L 702.035 230.64 L 700.604 231.652 L 699.103 231.652 L 699.103 234.724 L 707.445 234.724" style="fill:#ef7749;fill-opacity:1;fill-rule:nonzero;stroke:none"/>
        <path id="path18" d="M 725.736 220.867 C 729.016 220.867 731.32 222.507 731.495 224.846 L 719.452 224.846 C 720.011 222.472 722.455 220.867 725.736 220.867 L 725.736 220.867 Z M 733.693 230.187 L 730.936 229.558 C 729.959 230.815 728.179 231.548 726.155 231.548 C 722.804 231.548 720.081 229.663 719.488 227.044 L 734.008 227.044 L 734.008 224.846 C 733.59 220.658 729.855 217.027 725.771 217.027 C 720.988 217.027 717.044 220.902 717.044 225.614 C 717.044 231.339 720.43 235.039 725.666 235.039 C 730.03 235.039 732.578 233.503 733.693 230.187 L 733.693 230.187 Z M 727.866 213.187 L 730.03 211.791 L 729.645 209.243 L 728.004 208.475 L 726.015 209.976 L 721.059 213.99 L 721.896 215.072 L 727.866 213.187" style="fill:#ef7749;fill-opacity:1;fill-rule:nonzero;stroke:none"/>
        <path id="path19" d="M 739.454 227.848 L 737.499 228.476 C 737.499 233.188 739.768 235.178 745.074 235.178 C 749.716 235.178 752.09 233.328 752.09 229.663 C 752.09 223.868 740.64 225.683 740.64 222.403 C 740.709 221.111 742.071 220.518 744.83 220.518 C 747.726 220.518 749.82 222.088 749.855 224.252 L 751.74 223.694 C 751.775 223.45 751.775 223.171 751.775 222.682 C 751.775 218.772 750.03 217.271 745.108 216.923 C 740.291 216.923 738.232 218.423 738.232 221.948 L 738.232 222.298 C 738.232 224.811 740.116 226.451 743.956 227.255 C 748.774 228.302 749.576 228.72 749.576 230.012 C 749.576 231.268 748.075 231.932 745.214 231.932 L 744.62 231.932 C 741.514 231.862 739.454 230.222 739.454 227.848" style="fill:#ef7749;fill-opacity:1;fill-rule:nonzero;stroke:none"/>
        <path id="path20" d="M 764.271 220.867 C 767.552 220.867 769.856 222.507 770.031 224.846 L 757.988 224.846 C 758.547 222.472 760.991 220.867 764.271 220.867 Z M 772.23 230.187 L 769.472 229.558 C 768.495 230.815 766.715 231.548 764.691 231.548 C 761.339 231.548 758.616 229.663 758.023 227.044 L 772.544 227.044 L 772.544 224.846 C 772.126 220.658 768.391 217.027 764.307 217.027 C 759.524 217.027 755.58 220.902 755.58 225.614 C 755.58 231.339 758.966 235.039 764.202 235.039 C 768.564 235.039 771.114 233.503 772.23 230.187" style="fill:#ef7749;fill-opacity:1;fill-rule:nonzero;stroke:none"/>
        <path id="path21" d="M 784.656 234.828 L 787.658 231.512 L 787.658 234.69 L 792.859 234.69 L 792.859 231.792 L 791.498 231.792 L 790.555 231.024 L 790.555 221.18 C 790.555 218.458 787.623 216.608 784.063 216.608 C 782.598 216.608 781.271 217.411 780.363 218.214 L 778.339 220.168 L 779.944 221.286 C 780.956 220.727 783.12 220.028 784.482 220.028 C 786.471 220.028 787.658 220.762 787.658 222.019 L 787.658 224.078 L 782.492 224.218 C 782.248 224.218 781.375 224.322 780.782 224.427 C 777.606 224.951 776.035 226.591 776.035 229.419 C 776.035 233.083 778.303 235.003 782.632 235.003 C 783.226 235.003 783.923 234.934 784.656 234.828 L 784.656 234.828 Z M 778.514 228.511 L 778.514 228.092 C 778.514 226.94 780.922 226.278 785.215 226.278 L 787.658 226.278 L 787.658 228.964 C 787.275 230.151 785.39 231.024 782.946 231.024 C 780.294 231.024 778.514 230.012 778.514 228.511" style="fill:#ef7749;fill-opacity:1;fill-rule:nonzero;stroke:none"/>
        <path id="path22" d="M 800.678 221.32 L 802.039 220.343 L 803.122 220.343 L 803.122 217.236 L 795.128 217.236 L 795.128 220.274 L 796.559 220.274 L 797.92 221.251 L 797.92 228.651 C 797.92 232.944 800.434 235.212 805.251 235.212 C 810.032 235.212 812.58 232.944 812.58 228.651 L 812.58 221.216 L 813.907 220.274 L 814.99 220.274 L 814.99 217.236 L 807.066 217.236 L 807.066 220.274 L 808.496 220.274 L 809.823 221.251 L 809.823 227.639 C 809.823 229.978 808.043 231.443 805.251 231.443 C 802.354 231.443 800.643 229.978 800.643 227.639 L 800.643 221.251 L 800.678 221.32" style="fill:#ef7749;fill-opacity:1;fill-rule:nonzero;stroke:none"/>
        <path id="path23" d="M 842.948 225.928 C 842.948 228.93 840.296 231.059 836.596 231.059 C 832.862 231.059 830.208 228.93 830.208 225.928 C 830.208 222.996 832.862 220.936 836.596 220.936 C 840.331 220.936 842.948 222.996 842.948 225.928 Z M 827.904 226.242 C 827.904 231.548 831.326 234.899 836.806 234.899 C 838.342 234.899 839.388 234.69 840.296 234.2 L 843.332 231.303 L 843.332 234.69 L 848.883 234.69 L 848.883 231.618 L 847.522 231.618 L 846.09 230.571 L 846.09 209.662 L 843.472 207.951 L 840.715 209.627 L 840.715 211.232 L 843.332 212.244 L 843.332 221.042 L 840.959 218.144 C 839.982 217.516 837.992 216.923 836.806 216.923 C 831.604 216.923 827.904 220.796 827.904 226.242" style="fill:#ef7749;fill-opacity:1;fill-rule:nonzero;stroke:none"/>
        <path id="path24" d="M 850.978 208.824 L 851.675 213.711 L 853.63 213.711 L 854.328 208.824 L 854.328 207.707 L 852.618 206.764 L 850.978 207.707 L 850.978 208.824" style="fill:#ef7749;fill-opacity:1;fill-rule:nonzero;stroke:none"/>
        <path id="path25" d="M 864.416 234.724 L 864.416 231.652 L 863.055 231.652 L 861.694 230.64 L 861.694 223.206 L 861.728 223.59 C 861.728 221.81 863.718 220.552 866.44 220.552 C 869.198 220.552 871.083 221.81 871.083 223.59 L 871.083 230.675 L 869.791 231.652 L 868.395 231.652 L 868.395 234.69 L 876.528 234.69 L 876.528 231.652 L 875.132 231.652 L 873.806 230.675 L 873.806 223.415 C 873.806 219.331 871.502 216.992 867.487 216.992 C 866.44 216.992 865.079 217.167 864.206 217.446 L 861.694 220.134 L 861.694 208.684 L 859.25 207.672 L 856.352 209.174 L 856.352 210.639 L 859.006 211.582 L 859.006 230.64 L 857.574 231.652 L 856.074 231.652 L 856.074 234.724 L 864.416 234.724" style="fill:#ef7749;fill-opacity:1;fill-rule:nonzero;stroke:none"/>
        <path id="path26" d="M 888.012 220.867 C 891.294 220.867 893.596 222.507 893.771 224.846 L 881.728 224.846 C 882.287 222.472 884.731 220.867 888.012 220.867 L 888.012 220.867 Z M 895.971 230.187 L 893.212 229.558 C 892.235 230.815 890.455 231.548 888.431 231.548 C 885.08 231.548 882.358 229.663 881.764 227.044 L 896.284 227.044 L 896.284 224.846 C 895.866 220.658 892.131 217.027 888.047 217.027 C 883.264 217.027 879.32 220.902 879.32 225.614 C 879.32 231.339 882.706 235.039 887.942 235.039 C 892.306 235.039 894.854 233.503 895.971 230.187 L 895.971 230.187 Z M 890.142 213.187 L 892.306 211.791 L 891.922 209.243 L 890.28 208.475 L 888.291 209.976 L 883.335 213.99 L 884.172 215.072 L 890.142 213.187" style="fill:#ef7749;fill-opacity:1;fill-rule:nonzero;stroke:none"/>
        <path id="path27" d="M 903.65 234.69 L 903.65 230.955 L 907.071 234.2 C 907.978 234.69 909.026 234.899 910.56 234.899 C 916.076 234.899 919.602 231.512 919.602 226.242 C 919.602 220.832 915.796 216.923 910.56 216.923 C 909.374 216.923 907.384 217.516 906.407 218.144 L 903.65 221.495 L 903.65 209.662 L 901.032 207.951 L 898.274 209.627 L 898.274 211.232 L 900.892 212.244 L 900.892 234.69 L 903.65 234.69 Z M 904.418 225.928 C 904.418 222.996 907.071 220.936 910.875 220.936 C 914.644 220.936 917.298 222.996 917.298 225.928 C 917.298 228.93 914.61 231.059 910.875 231.059 C 907.106 231.059 904.418 228.93 904.418 225.928" style="fill:#ef7749;fill-opacity:1;fill-rule:nonzero;stroke:none"/>
        <path id="path28" d="M 931.435 220.867 C 934.715 220.867 937.019 222.507 937.194 224.846 L 925.151 224.846 C 925.71 222.472 928.154 220.867 931.435 220.867 Z M 939.392 230.187 L 936.635 229.558 C 935.658 230.815 933.878 231.548 931.854 231.548 C 928.503 231.548 925.78 229.663 925.187 227.044 L 939.707 227.044 L 939.707 224.846 C 939.288 220.658 935.554 217.027 931.47 217.027 C 926.687 217.027 922.743 220.902 922.743 225.614 C 922.743 231.339 926.128 235.039 931.364 235.039 C 935.728 235.039 938.276 233.503 939.392 230.187" style="fill:#ef7749;fill-opacity:1;fill-rule:nonzero;stroke:none"/>
        <path id="path29" d="M 951.54 234.724 L 951.54 231.652 L 950.179 231.652 L 948.852 230.675 L 948.852 223.415 L 948.887 223.728 C 948.887 222.019 950.598 221.042 953.599 221.042 L 954.158 221.042 C 955.45 221.111 956.567 221.46 957.335 221.983 L 958.87 218.144 C 957.998 217.411 956.811 217.027 955.415 217.027 C 955.031 217.027 954.612 217.062 954.158 217.132 C 953.32 217.236 952.274 217.551 951.644 217.9 L 948.852 220.936 L 948.852 217.76 L 946.374 216.748 L 943.476 218.248 L 943.476 219.715 L 946.13 220.658 L 946.13 230.64 L 944.699 231.652 L 943.198 231.652 L 943.198 234.724 L 951.54 234.724" style="fill:#ef7749;fill-opacity:1;fill-rule:nonzero;stroke:none"/>
        <path id="path30" d="M 964.595 235.98 L 961.838 235.98 C 961.838 240.694 965.538 243.764 971.192 243.764 C 976.637 243.764 979.464 241.112 979.464 235.98 L 979.464 221.006 L 982.187 220.028 L 982.187 218.494 L 979.464 216.923 L 976.776 218.772 L 976.776 221.32 L 974.333 218.074 C 972.972 217.202 972.308 217.027 970.528 217.027 L 969.9 217.027 C 964.664 217.027 961.383 220.622 961.383 226.278 C 961.383 231.583 964.664 234.899 969.866 234.899 C 971.192 234.899 973.147 234.69 973.426 234.41 L 976.776 230.78 L 976.776 235.98 C 976.776 238.11 973.984 240.135 970.983 240.135 C 967.84 240.135 964.595 238.04 964.595 235.98 Z M 976.357 225.928 C 976.357 228.93 973.775 231.059 970.11 231.059 C 966.479 231.059 963.862 228.93 963.862 225.928 C 963.862 222.996 966.444 220.936 970.11 220.936 C 973.775 220.936 976.357 222.996 976.357 225.928" style="fill:#ef7749;fill-opacity:1;fill-rule:nonzero;stroke:none"/>
        <path id="path31" d="M 993.147 220.867 C 996.428 220.867 998.732 222.507 998.907 224.846 L 986.864 224.846 C 987.423 222.472 989.867 220.867 993.147 220.867 L 993.147 220.867 Z M 1001.11 230.187 L 998.348 229.558 C 997.371 230.815 995.591 231.548 993.567 231.548 C 990.215 231.548 987.492 229.663 986.899 227.044 L 1001.42 227.044 L 1001.42 224.846 C 1001 220.658 997.267 217.027 993.183 217.027 C 988.4 217.027 984.456 220.902 984.456 225.614 C 984.456 231.339 987.841 235.039 993.077 235.039 C 997.44 235.039 999.989 233.503 1001.11 230.187" style="fill:#ef7749;fill-opacity:1;fill-rule:nonzero;stroke:none"/>
        <path id="path32" d="M 1013.25 234.724 L 1013.25 231.652 L 1011.89 231.652 L 1010.57 230.675 L 1010.57 223.1 L 1010.63 223.728 C 1010.63 222.019 1012.35 221.042 1015.35 221.042 C 1017.76 221.042 1018.59 221.739 1018.59 223.728 L 1018.59 230.675 L 1018.56 230.675 L 1017.27 231.652 L 1015.87 231.652 L 1015.87 234.69 L 1024 234.69 L 1024 231.652 L 1022.61 231.652 L 1021.28 230.675 L 1021.28 223.415 C 1021.28 223.1 1021.28 222.822 1021.25 222.542 C 1021.91 221.564 1023.41 221.042 1025.61 221.042 C 1028.02 221.042 1028.86 221.739 1028.86 223.728 L 1028.86 230.675 L 1028.82 230.675 L 1027.53 231.652 L 1026.13 231.652 L 1026.13 234.69 L 1034.27 234.69 L 1034.27 231.652 L 1032.87 231.652 L 1031.54 230.675 L 1031.54 223.415 C 1031.54 219.4 1029.9 217.167 1026.97 217.167 C 1025.96 217.167 1024.6 217.48 1023.65 217.9 L 1021 220.796 C 1020.41 218.458 1018.94 217.167 1016.71 217.167 C 1015.7 217.167 1014.34 217.48 1013.39 217.9 L 1010.57 220.971 L 1010.57 217.76 L 1008.09 216.748 L 1005.19 218.248 L 1005.19 219.715 L 1007.84 220.658 L 1007.84 230.64 L 1006.41 231.652 L 1004.91 231.652 L 1004.91 234.724 L 1013.25 234.724" style="fill:#ef7749;fill-opacity:1;fill-rule:nonzero;stroke:none"/>
        <path id="path33" d="M 1045.92 220.867 C 1049.2 220.867 1051.51 222.507 1051.68 224.846 L 1039.64 224.846 C 1040.2 222.472 1042.64 220.867 1045.92 220.867 L 1045.92 220.867 Z M 1053.88 230.187 L 1051.13 229.558 C 1050.15 230.815 1048.37 231.548 1046.34 231.548 C 1042.99 231.548 1040.27 229.663 1039.68 227.044 L 1054.2 227.044 L 1054.2 224.846 C 1053.78 220.658 1050.04 217.027 1045.96 217.027 C 1041.18 217.027 1037.23 220.902 1037.23 225.614 C 1037.23 231.339 1040.62 235.039 1045.86 235.039 C 1050.22 235.039 1052.77 233.503 1053.88 230.187" style="fill:#ef7749;fill-opacity:1;fill-rule:nonzero;stroke:none"/>
        <path id="path34" d="M 1066.03 234.724 L 1066.03 231.652 L 1064.67 231.652 L 1063.34 230.675 L 1063.34 223.415 L 1063.38 223.728 C 1063.38 222.019 1065.09 221.042 1068.09 221.042 C 1071.06 221.042 1072.77 222.019 1072.77 223.728 L 1072.77 230.675 L 1072.7 230.675 L 1071.4 231.652 L 1070.01 231.652 L 1070.01 234.69 L 1078.14 234.69 L 1078.14 231.652 L 1076.75 231.652 L 1075.42 230.675 L 1075.42 223.415 C 1075.42 219.4 1073.26 217.167 1069.87 217.167 C 1068.68 217.167 1067.15 217.48 1066.13 217.9 L 1063.34 220.936 L 1063.34 217.76 L 1060.86 216.748 L 1057.97 218.248 L 1057.97 219.715 L 1060.62 220.658 L 1060.62 230.64 L 1059.19 231.652 L 1057.69 231.652 L 1057.69 234.724 L 1066.03 234.724" style="fill:#ef7749;fill-opacity:1;fill-rule:nonzero;stroke:none"/>
        <path id="path35" d="M 1083.38 227.01 C 1083.38 232.28 1085.68 234.968 1090.15 234.968 C 1093.82 234.968 1095.66 231.268 1095.66 226.975 L 1093.4 226.975 C 1093.4 229.558 1092.1 231.199 1090.05 231.199 L 1089.84 231.199 C 1087.43 231.199 1086.2 230.047 1086.2 227.01 L 1086.2 221.39 L 1094.86 221.39 L 1094.86 218.004 L 1086.2 218.004 L 1086.2 211.512 L 1083.38 211.512 L 1083.38 218.004 L 1080.27 218.004 L 1080.27 221.39 L 1083.38 221.39 L 1083.38 227.01" style="fill:#ef7749;fill-opacity:1;fill-rule:nonzero;stroke:none"/>
        <path id="path36" d="M 701.057 269.735 L 699.103 270.363 C 699.103 275.075 701.372 277.064 706.678 277.064 C 711.32 277.064 713.693 275.215 713.693 271.55 C 713.693 265.755 702.244 267.571 702.244 264.29 C 702.314 262.998 703.675 262.404 706.433 262.404 C 709.33 262.404 711.424 263.975 711.459 266.139 L 713.344 265.58 C 713.379 265.336 713.379 265.058 713.379 264.568 C 713.379 260.659 711.633 259.158 706.712 258.81 C 701.895 258.81 699.836 260.31 699.836 263.835 L 699.836 264.184 C 699.836 266.698 701.72 268.338 705.56 269.142 C 710.378 270.188 711.18 270.607 711.18 271.899 C 711.18 273.155 709.679 273.819 706.816 273.819 L 706.223 273.819 C 703.116 273.748 701.057 272.108 701.057 269.735" style="fill:#ef7749;fill-opacity:1;fill-rule:nonzero;stroke:none"/>
        <path id="path37" d="M 734.183 267.64 C 734.183 262.928 730.239 258.914 725.596 258.914 C 720.604 258.914 717.009 262.579 717.009 267.64 C 717.009 273.574 720.045 276.855 725.562 276.855 C 730.798 276.855 734.183 273.226 734.183 267.64 L 734.183 267.64 Z M 731.879 267.954 C 731.879 270.922 729.262 273.051 725.596 273.051 C 721.931 273.051 719.314 270.922 719.314 267.954 C 719.314 264.987 721.931 262.858 725.596 262.858 C 729.262 262.858 731.879 264.987 731.879 267.954" style="fill:#ef7749;fill-opacity:1;fill-rule:nonzero;stroke:none"/>
        <path id="path38" d="M 745.492 276.611 L 745.492 273.504 L 744.062 273.504 L 742.769 272.527 L 742.769 250.676 L 740.396 249.455 L 737.009 251.026 L 737.009 252.56 L 740.081 253.608 L 740.081 272.527 L 738.686 273.504 L 737.15 273.504 L 737.15 276.611 L 745.492 276.611" style="fill:#ef7749;fill-opacity:1;fill-rule:nonzero;stroke:none"/>
        <path id="path39" d="M 755.3 251.932 L 752.299 250.362 L 749.227 251.932 L 749.227 253.922 L 752.264 255.494 L 755.3 253.922 L 755.3 251.932 Z M 751.845 271.899 L 750.379 272.946 L 748.564 272.946 L 748.564 276.611 L 756.907 276.611 L 756.907 272.946 L 755.684 272.946 L 754.288 271.899 L 754.288 260.031 L 752.055 258.774 L 749.157 260.171 L 749.157 261.846 L 751.845 263.347 L 751.845 271.899" style="fill:#ef7749;fill-opacity:1;fill-rule:nonzero;stroke:none"/>
        <path id="path40" d="M 775.267 267.815 C 775.267 270.816 772.614 272.946 768.914 272.946 C 765.179 272.946 762.526 270.816 762.526 267.815 C 762.526 264.883 765.179 262.823 768.914 262.823 C 772.648 262.823 775.267 264.883 775.267 267.815 Z M 760.223 268.128 C 760.223 273.435 763.643 276.786 769.123 276.786 C 770.659 276.786 771.707 276.576 772.614 276.087 L 775.651 273.19 L 775.651 276.576 L 781.2 276.576 L 781.2 273.504 L 779.839 273.504 L 778.408 272.458 L 778.408 251.548 L 775.791 249.838 L 773.032 251.514 L 773.032 253.119 L 775.651 254.132 L 775.651 262.928 L 773.278 260.031 C 772.3 259.403 770.31 258.81 769.123 258.81 C 763.923 258.81 760.223 262.683 760.223 268.128" style="fill:#ef7749;fill-opacity:1;fill-rule:nonzero;stroke:none"/>
        <path id="path41" d="M 793.139 276.715 L 796.14 273.399 L 796.14 276.576 L 801.342 276.576 L 801.342 273.679 L 799.98 273.679 L 799.038 272.911 L 799.038 263.067 C 799.038 260.344 796.106 258.495 792.546 258.495 C 791.079 258.495 789.752 259.298 788.846 260.1 L 786.82 262.055 L 788.426 263.172 C 789.439 262.614 791.603 261.915 792.964 261.915 C 794.954 261.915 796.14 262.648 796.14 263.906 L 796.14 265.964 L 790.975 266.104 C 790.73 266.104 789.858 266.21 789.264 266.314 C 786.087 266.838 784.516 268.478 784.516 271.306 C 784.516 274.97 786.786 276.89 791.114 276.89 C 791.707 276.89 792.406 276.82 793.139 276.715 L 793.139 276.715 Z M 786.995 270.398 L 786.995 269.979 C 786.995 268.827 789.403 268.164 793.696 268.164 L 796.14 268.164 L 796.14 270.851 C 795.756 272.038 793.871 272.911 791.428 272.911 C 788.775 272.911 786.995 271.899 786.995 270.398" style="fill:#ef7749;fill-opacity:1;fill-rule:nonzero;stroke:none"/>
        <path id="path42" d="M 811.115 251.932 L 808.112 250.362 L 805.042 251.932 L 805.042 253.922 L 808.078 255.494 L 811.115 253.922 L 811.115 251.932 Z M 807.659 271.899 L 806.194 272.946 L 804.378 272.946 L 804.378 276.611 L 812.72 276.611 L 812.72 272.946 L 811.499 272.946 L 810.103 271.899 L 810.103 260.031 L 807.868 258.774 L 804.971 260.171 L 804.971 261.846 L 807.659 263.347 L 807.659 271.899" style="fill:#ef7749;fill-opacity:1;fill-rule:nonzero;stroke:none"/>
        <path id="path43" d="M 824.728 276.611 L 824.728 273.539 L 823.367 273.539 L 822.04 272.562 L 822.04 265.302 L 822.075 265.615 C 822.075 263.906 823.786 262.928 826.787 262.928 L 827.346 262.928 C 828.638 262.998 829.755 263.347 830.523 263.871 L 832.058 260.031 C 831.186 259.298 829.999 258.914 828.603 258.914 C 828.219 258.914 827.8 258.948 827.346 259.019 C 826.508 259.123 825.462 259.438 824.832 259.787 L 822.04 262.823 L 822.04 259.647 L 819.562 258.635 L 816.664 260.135 L 816.664 261.602 L 819.318 262.544 L 819.318 272.527 L 817.887 273.539 L 816.386 273.539 L 816.386 276.611 L 824.728 276.611" style="fill:#ef7749;fill-opacity:1;fill-rule:nonzero;stroke:none"/>
        <path id="path44" d="M 843.019 262.754 C 846.3 262.754 848.603 264.394 848.778 266.732 L 836.735 266.732 C 837.294 264.359 839.738 262.754 843.019 262.754 L 843.019 262.754 Z M 850.978 272.074 L 848.219 271.444 C 847.242 272.702 845.462 273.435 843.438 273.435 C 840.087 273.435 837.364 271.55 836.771 268.931 L 851.291 268.931 L 851.291 266.732 C 850.872 262.544 847.138 258.914 843.054 258.914 C 838.271 258.914 834.327 262.788 834.327 267.5 C 834.327 273.226 837.712 276.926 842.948 276.926 C 847.312 276.926 849.86 275.39 850.978 272.074" style="fill:#ef7749;fill-opacity:1;fill-rule:nonzero;stroke:none"/>
      </g>
      <path id="path45" d="M 392.849 382.588 L 454.898 380.659 L 501.837 329.764 L 512.66 279.136 L 445.038 224.547 L 395.454 246.363 L 375.668 229.232 L 389.436 201.619 L 455.994 212.131 L 463.88 168.104 L 361.085 154.794 L 328.986 239.616 L 382.872 291.115 L 437.122 275.731 L 464.549 300.558 L 433.124 339.004 L 381.854 338.699 L 392.849 382.588" style="fill:#ef7749;fill-opacity:1;fill-rule:evenodd;stroke:none"/>
      <path id="path46" d="M 197.134 391.226 L 193.616 154.794 L 269.634 154.794 L 300.876 198.892 L 268.593 248.928 L 316.496 273.01 L 341.488 331.01 L 293.586 391.226 L 197.134 391.226" style="fill:#ef7749;fill-opacity:1;fill-rule:evenodd;stroke:none"/>
    </g>
  </g>
</svg>