<?xml version="1.0" encoding="UTF-8" standalone="no"?>
<!-- Created with Inkscape (http://www.inkscape.org/) -->

<svg
   version="1.1"
   id="svg1"
   width="793.70667"
   height="559.37335"
   viewBox="0 0 793.70667 559.37335"
   sodipodi:docname="logo_orange.eps"
   xmlns:inkscape="http://www.inkscape.org/namespaces/inkscape"
   xmlns:sodipodi="http://sodipodi.sourceforge.net/DTD/sodipodi-0.dtd"
   xmlns="http://www.w3.org/2000/svg"
   xmlns:svg="http://www.w3.org/2000/svg">
  <defs
     id="defs1" />
  <sodipodi:namedview
     id="namedview1"
     pagecolor="#ffffff"
     bordercolor="#000000"
     borderopacity="0.25"
     inkscape:showpageshadow="2"
     inkscape:pageopacity="0.0"
     inkscape:pagecheckerboard="0"
     inkscape:deskcolor="#d1d1d1">
    <inkscape:page
       x="0"
       y="0"
       inkscape:label="1"
       id="page1"
       width="793.70667"
       height="559.37335"
       margin="0"
       bleed="0" />
  </sodipodi:namedview>
  <g
     id="g1"
     inkscape:groupmode="layer"
     inkscape:label="1">
    <g
       id="group-R5">
      <path
         id="path2"
         d="m 1396.4,1107.94 -291.21,42.56 555.3,1715.37 438.57,-75.23 24.19,-1787.43 -305.93,46.2 -30.42,704.09 -142.65,23.08 -234.96,-668.64 h -12.89"
         style="fill:#ef7749;fill-opacity:1;fill-rule:evenodd;stroke:none"
         transform="matrix(0.13333333,0,0,-0.13333333,0,559.37333)" />
      <path
         id="path3"
         d="m 3221.84,643.66 c 24.61,0 41.89,-12.308 43.2,-29.851 h -90.32 c 4.19,17.8 22.51,29.851 47.12,29.851 z m 59.69,-69.898 -20.68,4.707 c -7.33,-9.43 -20.68,-14.918 -35.87,-14.918 -25.13,0 -45.55,14.129 -50,33.769 h 108.91 v 16.489 c -3.14,31.421 -31.16,58.64 -61.79,58.64 -35.86,0 -65.44,-29.058 -65.44,-64.398 0,-42.93 25.39,-70.68 64.66,-70.68 32.72,0 51.83,11.52 60.21,36.391"
         style="fill:#ef7749;fill-opacity:1;fill-rule:nonzero;stroke:none"
         transform="matrix(0.13333333,0,0,-0.13333333,0,559.37333)" />
      <path
         id="path4"
         d="m 3372.64,539.719 v 23.043 h -10.21 l -9.95,7.328 v 54.449 l 0.26,-2.348 c 0,12.829 12.83,20.161 35.34,20.161 22.25,0 35.08,-7.332 35.08,-20.161 V 570.09 h -0.52 l -9.69,-7.328 h -10.47 v -22.774 h 61 v 22.774 h -10.47 l -9.95,7.328 v 54.449 c 0,30.109 -16.23,46.871 -41.63,46.871 -8.9,0 -20.42,-2.359 -28.01,-5.5 l -20.94,-22.781 v 23.832 l -18.59,7.59 -21.73,-11.262 v -11 l 19.9,-7.059 v -74.878 l -10.74,-7.59 h -11.25 v -23.043 h 62.57"
         style="fill:#ef7749;fill-opacity:1;fill-rule:nonzero;stroke:none"
         transform="matrix(0.13333333,0,0,-0.13333333,0,559.37333)" />
      <path
         id="path5"
         d="M 3566.88,539.988 H 3636 v 22.25 h -11.26 l -10.47,7.852 v 71.73 h 100 v -71.73 l -10.73,-7.852 h -10.73 v -22.25 h 66.49 v 21.723 h -10.99 l -11.52,8.379 v 136.129 l 11.25,8.121 h 13.88 v 21.988 h -69.11 V 714.34 h 10.99 l 10.47,-7.852 v -38.75 h -100 v 39.012 l 10.47,7.852 H 3636 v 21.726 h -69.12 v -21.726 h 14.14 l 10.73,-7.852 V 570.09 l -10.47,-7.852 h -14.4 v -22.25"
         style="fill:#ef7749;fill-opacity:1;fill-rule:nonzero;stroke:none"
         transform="matrix(0.13333333,0,0,-0.13333333,0,559.37333)" />
      <path
         id="path6"
         d="m 3855.38,538.941 22.51,24.868 v -23.821 h 39.01 v 21.723 h -10.21 l -7.07,5.758 v 73.832 c 0,20.418 -21.99,34.289 -48.69,34.289 -11,0 -20.94,-6.02 -27.75,-12.039 l -15.18,-14.66 12.04,-8.379 c 7.59,4.187 23.82,9.429 34.03,9.429 14.92,0 23.82,-5.5 23.82,-14.921 v -15.45 l -38.74,-1.05 c -1.83,0 -8.38,-0.782 -12.83,-1.571 -23.82,-3.918 -35.6,-16.23 -35.6,-37.429 0,-27.489 17.01,-41.891 49.48,-41.891 4.45,0 9.68,0.519 15.18,1.312 z m -46.08,47.379 v 3.141 c 0,8.641 18.07,13.617 50.27,13.617 h 18.32 v -20.156 c -2.88,-8.902 -17.01,-15.453 -35.34,-15.453 -19.89,0 -33.25,7.601 -33.25,18.851"
         style="fill:#ef7749;fill-opacity:1;fill-rule:nonzero;stroke:none"
         transform="matrix(0.13333333,0,0,-0.13333333,0,559.37333)" />
      <path
         id="path7"
         d="m 3975.54,640.25 10.21,7.328 h 8.12 v 23.301 h -59.95 v -22.77 h 10.73 l 10.21,-7.328 v -55.5 c 0,-32.203 18.85,-49.222 54.98,-49.222 35.86,0 54.97,17.019 54.97,49.222 v 55.758 l 9.95,7.07 h 8.12 v 22.77 h -59.43 v -22.77 h 10.73 l 9.95,-7.328 v -47.91 c 0,-17.543 -13.35,-28.543 -34.29,-28.543 -21.73,0 -34.56,11 -34.56,28.543 v 47.91 l 0.26,-0.531"
         style="fill:#ef7749;fill-opacity:1;fill-rule:nonzero;stroke:none"
         transform="matrix(0.13333333,0,0,-0.13333333,0,559.37333)" />
      <path
         id="path8"
         d="m 4118.22,597.578 c 0,-39.527 17.28,-59.687 50.79,-59.687 27.48,0 41.36,27.75 41.36,59.949 h -17.02 c 0,-19.371 -9.68,-31.668 -25.13,-31.668 h -1.57 c -18.06,0 -27.23,8.629 -27.23,31.406 v 42.152 h 64.93 v 25.391 h -64.93 v 48.699 h -21.2 v -48.699 h -23.3 V 639.73 h 23.3 v -42.152"
         style="fill:#ef7749;fill-opacity:1;fill-rule:nonzero;stroke:none"
         transform="matrix(0.13333333,0,0,-0.13333333,0,559.37333)" />
      <path
         id="path9"
         d="m 4298.07,643.66 c 24.61,0 41.89,-12.308 43.2,-29.851 h -90.32 c 4.19,17.8 22.51,29.851 47.12,29.851 z m 59.69,-69.898 -20.68,4.707 c -7.33,-9.43 -20.68,-14.918 -35.87,-14.918 -25.13,0 -45.55,14.129 -50,33.769 h 108.9 v 16.489 c -3.14,31.421 -31.15,58.64 -61.78,58.64 -35.86,0 -65.45,-29.058 -65.45,-64.398 0,-42.93 25.4,-70.68 64.67,-70.68 32.72,0 51.83,11.52 60.21,36.391"
         style="fill:#ef7749;fill-opacity:1;fill-rule:nonzero;stroke:none"
         transform="matrix(0.13333333,0,0,-0.13333333,0,559.37333)" />
      <path
         id="path10"
         d="m 4457.24,613.809 v 25.132 h -74.87 v -25.132 h 74.87"
         style="fill:#ef7749;fill-opacity:1;fill-rule:nonzero;stroke:none"
         transform="matrix(0.13333333,0,0,-0.13333333,0,559.37333)" />
      <path
         id="path11"
         d="m 4506.98,705.441 7.85,9.418 h 16.76 v 22.262 h -61.26 v -22.262 h 6.54 l 7.07,-8.64 43.98,-138.219 8.64,-28.281 h 43.72 l 8.12,27.75 44.24,138.23 7.07,8.641 h 6.54 v 22.25 h -61.26 v -22.25 h 16.76 l 7.85,-9.43 -40.58,-131.68 h -22.25 l -39.79,132.211"
         style="fill:#ef7749;fill-opacity:1;fill-rule:nonzero;stroke:none"
         transform="matrix(0.13333333,0,0,-0.13333333,0,559.37333)" />
      <path
         id="path12"
         d="m 4711.7,724.809 -22.51,11.781 -23.04,-11.781 v -14.918 l 22.77,-11.782 22.78,11.782 z m -25.92,-149.739 -10.99,-7.859 h -13.62 v -27.492 h 62.57 v 27.492 h -9.16 l -10.47,7.859 v 89.008 l -16.76,9.422 -21.72,-10.469 v -12.57 l 20.15,-11.25 V 575.07"
         style="fill:#ef7749;fill-opacity:1;fill-rule:nonzero;stroke:none"
         transform="matrix(0.13333333,0,0,-0.13333333,0,559.37333)" />
      <path
         id="path13"
         d="m 4813.8,643.66 c 24.61,0 41.89,-12.308 43.2,-29.851 h -90.32 c 4.19,17.8 22.51,29.851 47.12,29.851 z m 59.69,-69.898 -20.68,4.707 c -7.33,-9.43 -20.68,-14.918 -35.87,-14.918 -25.13,0 -45.55,14.129 -50,33.769 h 108.9 v 16.489 c -3.14,31.421 -31.15,58.64 -61.78,58.64 -35.86,0 -65.45,-29.058 -65.45,-64.398 0,-42.93 25.4,-70.68 64.67,-70.68 32.72,0 51.83,11.52 60.21,36.391"
         style="fill:#ef7749;fill-opacity:1;fill-rule:nonzero;stroke:none"
         transform="matrix(0.13333333,0,0,-0.13333333,0,559.37333)" />
      <path
         id="path14"
         d="m 4964.59,539.719 v 23.043 h -10.21 l -9.95,7.328 v 54.449 l 0.27,-2.348 c 0,12.829 12.82,20.161 35.34,20.161 22.25,0 35.08,-7.332 35.08,-20.161 V 570.09 h -0.53 l -9.68,-7.328 h -10.47 v -22.774 h 60.99 v 22.774 h -10.47 l -9.95,7.328 v 54.449 c 0,30.109 -16.23,46.871 -41.62,46.871 -8.9,0 -20.42,-2.359 -28.01,-5.5 l -20.95,-22.781 v 23.832 l -18.58,7.59 -21.73,-11.262 v -11 l 19.89,-7.059 v -74.878 l -10.73,-7.59 h -11.26 v -23.043 h 62.57"
         style="fill:#ef7749;fill-opacity:1;fill-rule:nonzero;stroke:none"
         transform="matrix(0.13333333,0,0,-0.13333333,0,559.37333)" />
      <path
         id="path15"
         d="m 5142.87,539.719 v 23.043 h -10.21 l -9.95,7.328 v 54.449 l 0.27,-2.348 c 0,12.829 12.82,20.161 35.34,20.161 22.25,0 35.08,-7.332 35.08,-20.161 V 570.09 h -0.53 l -9.68,-7.328 h -10.47 v -22.774 h 60.99 v 22.774 h -10.47 l -9.95,7.328 v 54.449 c 0,30.109 -16.23,46.871 -41.62,46.871 -8.9,0 -20.42,-2.359 -28.01,-5.5 l -20.95,-22.781 v 23.832 l -18.58,7.59 -21.73,-11.262 v -11 l 19.89,-7.059 v -74.878 l -10.73,-7.59 h -11.26 v -23.043 h 62.57"
         style="fill:#ef7749;fill-opacity:1;fill-rule:nonzero;stroke:none"
         transform="matrix(0.13333333,0,0,-0.13333333,0,559.37333)" />
      <path
         id="path16"
         d="m 5321.15,643.66 c 24.61,0 41.89,-12.308 43.2,-29.851 h -90.32 c 4.19,17.8 22.51,29.851 47.12,29.851 z m 59.69,-69.898 -20.68,4.707 c -7.33,-9.43 -20.68,-14.918 -35.87,-14.918 -25.13,0 -45.55,14.129 -50,33.769 h 108.91 v 16.489 c -3.14,31.421 -31.16,58.64 -61.79,58.64 -35.86,0 -65.44,-29.058 -65.44,-64.398 0,-42.93 25.39,-70.68 64.66,-70.68 32.72,0 51.83,11.52 60.21,36.391"
         style="fill:#ef7749;fill-opacity:1;fill-rule:nonzero;stroke:none"
         transform="matrix(0.13333333,0,0,-0.13333333,0,559.37333)" />
      <path
         id="path17"
         d="m 632.129,3449.52 v 23.04 h -10.207 l -9.953,7.33 v 54.45 l 0.261,-2.35 c 0,12.82 12.829,20.15 35.34,20.15 h 4.192 c 9.687,-0.52 18.066,-3.14 23.816,-7.06 l 11.524,28.79 c -6.543,5.5 -15.442,8.38 -25.911,8.38 -2.882,0 -6.031,-0.26 -9.429,-0.79 -6.282,-0.78 -14.141,-3.14 -18.852,-5.76 l -20.941,-22.77 v 23.82 l -18.59,7.59 -21.731,-11.25 v -11 l 19.903,-7.07 v -74.87 l -10.731,-7.59 h -11.261 v -23.04 h 62.57"
         style="fill:#ef7749;fill-opacity:1;fill-rule:nonzero;stroke:none"
         transform="matrix(0.13333333,0,0,-0.13333333,0,559.37333)" />
      <path
         id="path18"
         d="m 769.309,3553.45 c 24.601,0 41.882,-12.3 43.191,-29.84 h -90.32 c 4.191,17.8 22.519,29.84 47.129,29.84 z m 59.679,-69.9 -20.679,4.72 c -7.329,-9.43 -20.68,-14.93 -35.86,-14.93 -25.129,0 -45.551,14.14 -50,33.78 h 108.903 v 16.49 c -3.141,31.41 -31.153,58.64 -61.782,58.64 -35.871,0 -65.449,-29.06 -65.449,-64.4 0,-42.94 25.391,-70.69 64.66,-70.69 32.731,0 51.84,11.52 60.207,36.39 z m -43.707,127.5 16.231,10.47 -2.883,19.11 -12.309,5.76 -14.922,-11.26 -37.168,-30.1 6.282,-8.12 44.769,14.14"
         style="fill:#ef7749;fill-opacity:1;fill-rule:nonzero;stroke:none"
         transform="matrix(0.13333333,0,0,-0.13333333,0,559.37333)" />
      <path
         id="path19"
         d="m 872.191,3501.09 -14.66,-4.71 c 0,-35.34 17.02,-50.26 56.809,-50.26 34.82,0 52.621,13.87 52.621,41.36 0,43.46 -85.871,29.85 -85.871,54.45 0.519,9.69 10.73,14.14 31.422,14.14 21.718,0 37.429,-11.78 37.687,-28.01 l 14.141,4.19 c 0.262,1.83 0.262,3.92 0.262,7.59 0,29.32 -13.09,40.58 -50,43.19 -36.133,0 -51.571,-11.25 -51.571,-37.69 v -2.62 c 0,-18.85 14.129,-31.15 42.93,-37.18 36.129,-7.85 42.148,-10.99 42.148,-20.68 0,-9.42 -11.257,-14.4 -32.718,-14.4 h -4.45 c -23.3,0.53 -38.75,12.83 -38.75,30.63"
         style="fill:#ef7749;fill-opacity:1;fill-rule:nonzero;stroke:none"
         transform="matrix(0.13333333,0,0,-0.13333333,0,559.37333)" />
      <path
         id="path20"
         d="m 1058.32,3553.45 c 24.61,0 41.89,-12.3 43.2,-29.84 h -90.32 c 4.19,17.8 22.52,29.84 47.12,29.84 z m 59.69,-69.9 -20.68,4.72 c -7.33,-9.43 -20.68,-14.93 -35.86,-14.93 -25.14,0 -45.56,14.14 -50.01,33.78 h 108.91 v 16.49 c -3.14,31.41 -31.15,58.64 -61.78,58.64 -35.87,0 -65.449,-29.06 -65.449,-64.4 0,-42.94 25.389,-70.69 64.659,-70.69 32.72,0 51.84,11.52 60.21,36.39"
         style="fill:#ef7749;fill-opacity:1;fill-rule:nonzero;stroke:none"
         transform="matrix(0.13333333,0,0,-0.13333333,0,559.37333)" />
      <path
         id="path21"
         d="m 1211.21,3448.74 22.51,24.87 v -23.83 h 39.01 v 21.73 h -10.21 l -7.07,5.76 v 73.83 c 0,20.42 -21.99,34.29 -48.69,34.29 -10.99,0 -20.94,-6.02 -27.75,-12.04 l -15.18,-14.66 12.04,-8.38 c 7.59,4.19 23.82,9.43 34.03,9.43 14.92,0 23.82,-5.5 23.82,-14.93 v -15.44 l -38.74,-1.05 c -1.83,0 -8.38,-0.78 -12.83,-1.57 -23.82,-3.93 -35.6,-16.23 -35.6,-37.44 0,-27.48 17.01,-41.88 49.48,-41.88 4.45,0 9.68,0.52 15.18,1.31 z m -46.07,47.38 v 3.14 c 0,8.64 18.06,13.61 50.26,13.61 h 18.32 v -20.15 c -2.87,-8.9 -17.01,-15.45 -35.34,-15.45 -19.89,0 -33.24,7.59 -33.24,18.85"
         style="fill:#ef7749;fill-opacity:1;fill-rule:nonzero;stroke:none"
         transform="matrix(0.13333333,0,0,-0.13333333,0,559.37333)" />
      <path
         id="path22"
         d="m 1331.37,3550.05 10.21,7.33 h 8.12 v 23.3 h -59.95 v -22.78 h 10.73 l 10.21,-7.33 v -55.5 c 0,-32.2 18.85,-49.21 54.98,-49.21 35.86,0 54.97,17.01 54.97,49.21 v 55.76 l 9.95,7.07 h 8.12 v 22.78 h -59.43 v -22.78 h 10.73 l 9.95,-7.33 v -47.91 c 0,-17.54 -13.35,-28.53 -34.29,-28.53 -21.73,0 -34.56,10.99 -34.56,28.53 v 47.91 l 0.26,-0.52"
         style="fill:#ef7749;fill-opacity:1;fill-rule:nonzero;stroke:none"
         transform="matrix(0.13333333,0,0,-0.13333333,0,559.37333)" />
      <path
         id="path23"
         d="m 1648.4,3515.49 c 0,-22.51 -19.89,-38.48 -47.64,-38.48 -28.01,0 -47.91,15.97 -47.91,38.48 0,21.99 19.9,37.44 47.91,37.44 28.01,0 47.64,-15.45 47.64,-37.44 z m -112.83,-2.35 c 0,-39.8 25.66,-64.93 66.76,-64.93 11.52,0 19.37,1.57 26.18,5.24 l 22.77,21.73 v -25.4 h 41.63 v 23.04 h -10.21 l -10.74,7.85 v 156.82 l -19.63,12.83 -20.68,-12.57 v -12.04 l 19.63,-7.59 v -65.98 l -17.8,21.73 c -7.33,4.71 -22.25,9.16 -31.15,9.16 -39.01,0 -66.76,-29.05 -66.76,-69.89"
         style="fill:#ef7749;fill-opacity:1;fill-rule:nonzero;stroke:none"
         transform="matrix(0.13333333,0,0,-0.13333333,0,559.37333)" />
      <path
         id="path24"
         d="m 1708.62,3643.77 5.23,-36.65 h 14.66 l 5.24,36.65 v 8.38 l -12.83,7.07 -12.3,-7.07 v -8.38"
         style="fill:#ef7749;fill-opacity:1;fill-rule:nonzero;stroke:none"
         transform="matrix(0.13333333,0,0,-0.13333333,0,559.37333)" />
      <path
         id="path25"
         d="m 1809.41,3449.52 v 23.04 h -10.21 l -10.21,7.59 v 55.76 l 0.26,-2.88 c 0,13.35 14.92,22.78 35.34,22.78 20.68,0 34.82,-9.43 34.82,-22.78 v -53.14 l -9.69,-7.33 h -10.47 v -22.78 h 61 v 22.78 h -10.47 l -9.95,7.33 v 54.45 c 0,30.63 -17.28,48.17 -47.39,48.17 -7.85,0 -18.06,-1.31 -24.61,-3.4 l -18.84,-20.16 v 85.87 l -18.33,7.59 -21.73,-11.26 v -10.99 l 19.9,-7.07 v -142.94 l -10.74,-7.59 h -11.25 v -23.04 h 62.57"
         style="fill:#ef7749;fill-opacity:1;fill-rule:nonzero;stroke:none"
         transform="matrix(0.13333333,0,0,-0.13333333,0,559.37333)" />
      <path
         id="path26"
         d="m 1986.38,3553.45 c 24.61,0 41.88,-12.3 43.19,-29.84 h -90.32 c 4.19,17.8 22.52,29.84 47.13,29.84 z m 59.69,-69.9 -20.69,4.72 c -7.33,-9.43 -20.68,-14.93 -35.86,-14.93 -25.13,0 -45.55,14.14 -50,33.78 h 108.9 v 16.49 c -3.14,31.41 -31.15,58.64 -61.78,58.64 -35.87,0 -65.45,-29.06 -65.45,-64.4 0,-42.94 25.39,-70.69 64.66,-70.69 32.73,0 51.84,11.52 60.22,36.39 z m -43.72,127.5 16.23,10.47 -2.88,19.11 -12.31,5.76 -14.92,-11.26 -37.17,-30.1 6.28,-8.12 44.77,14.14"
         style="fill:#ef7749;fill-opacity:1;fill-rule:nonzero;stroke:none"
         transform="matrix(0.13333333,0,0,-0.13333333,0,559.37333)" />
      <path
         id="path27"
         d="m 2103.66,3449.78 v 28.01 l 25.66,-24.34 c 6.8,-3.67 14.66,-5.24 26.17,-5.24 41.37,0 67.81,25.4 67.81,64.93 0,40.57 -28.54,69.89 -67.81,69.89 -8.9,0 -23.82,-4.45 -31.15,-9.16 l -20.68,-25.13 v 88.75 l -19.63,12.83 -20.69,-12.57 v -12.04 l 19.64,-7.59 v -168.34 z m 5.76,65.71 c 0,21.99 19.9,37.44 48.43,37.44 28.27,0 48.17,-15.45 48.17,-37.44 0,-22.51 -20.16,-38.48 -48.17,-38.48 -28.27,0 -48.43,15.97 -48.43,38.48"
         style="fill:#ef7749;fill-opacity:1;fill-rule:nonzero;stroke:none"
         transform="matrix(0.13333333,0,0,-0.13333333,0,559.37333)" />
      <path
         id="path28"
         d="m 2312.05,3553.45 c 24.6,0 41.88,-12.3 43.19,-29.84 h -90.32 c 4.19,17.8 22.52,29.84 47.13,29.84 z m 59.68,-69.9 -20.68,4.72 c -7.33,-9.43 -20.68,-14.93 -35.86,-14.93 -25.13,0 -45.55,14.14 -50,33.78 h 108.9 v 16.49 c -3.14,31.41 -31.15,58.64 -61.78,58.64 -35.87,0 -65.45,-29.06 -65.45,-64.4 0,-42.94 25.39,-70.69 64.66,-70.69 32.73,0 51.84,11.52 60.21,36.39"
         style="fill:#ef7749;fill-opacity:1;fill-rule:nonzero;stroke:none"
         transform="matrix(0.13333333,0,0,-0.13333333,0,559.37333)" />
      <path
         id="path29"
         d="m 2462.84,3449.52 v 23.04 h -10.21 l -9.95,7.33 v 54.45 l 0.26,-2.35 c 0,12.82 12.83,20.15 35.34,20.15 h 4.19 c 9.69,-0.52 18.07,-3.14 23.83,-7.06 l 11.51,28.79 c -6.54,5.5 -15.44,8.38 -25.91,8.38 -2.88,0 -6.02,-0.26 -9.43,-0.79 -6.28,-0.78 -14.13,-3.14 -18.85,-5.76 l -20.94,-22.77 v 23.82 l -18.59,7.59 -21.73,-11.25 v -11 l 19.9,-7.07 v -74.87 l -10.73,-7.59 h -11.26 v -23.04 h 62.57"
         style="fill:#ef7749;fill-opacity:1;fill-rule:nonzero;stroke:none"
         transform="matrix(0.13333333,0,0,-0.13333333,0,559.37333)" />
      <path
         id="path30"
         d="m 2560.75,3440.1 h -20.68 c 0,-35.35 27.75,-58.38 70.16,-58.38 40.84,0 62.04,19.89 62.04,58.38 v 112.31 l 20.42,7.33 v 11.51 l -20.42,11.78 -20.16,-13.87 v -19.11 l -18.32,24.35 c -10.21,6.54 -15.19,7.85 -28.54,7.85 h -4.71 c -39.27,0 -63.88,-26.96 -63.88,-69.38 0,-39.79 24.61,-64.66 63.62,-64.66 9.95,0 24.61,1.57 26.7,3.67 l 25.13,27.22 v -39 c 0,-15.97 -20.94,-31.16 -43.45,-31.16 -23.57,0 -47.91,15.71 -47.91,31.16 z m 88.22,75.39 c 0,-22.51 -19.37,-38.48 -46.86,-38.48 -27.23,0 -46.86,15.97 -46.86,38.48 0,21.99 19.37,37.44 46.86,37.44 27.49,0 46.86,-15.45 46.86,-37.44"
         style="fill:#ef7749;fill-opacity:1;fill-rule:nonzero;stroke:none"
         transform="matrix(0.13333333,0,0,-0.13333333,0,559.37333)" />
      <path
         id="path31"
         d="m 2774.89,3553.45 c 24.61,0 41.89,-12.3 43.2,-29.84 h -90.32 c 4.19,17.8 22.52,29.84 47.12,29.84 z m 59.69,-69.9 -20.68,4.72 c -7.33,-9.43 -20.68,-14.93 -35.86,-14.93 -25.14,0 -45.56,14.14 -50.01,33.78 h 108.91 v 16.49 c -3.14,31.41 -31.15,58.64 -61.78,58.64 -35.87,0 -65.45,-29.06 -65.45,-64.4 0,-42.94 25.39,-70.69 64.66,-70.69 32.72,0 51.84,11.52 60.21,36.39"
         style="fill:#ef7749;fill-opacity:1;fill-rule:nonzero;stroke:none"
         transform="matrix(0.13333333,0,0,-0.13333333,0,559.37333)" />
      <path
         id="path32"
         d="m 2925.69,3449.52 v 23.04 h -10.21 l -9.95,7.33 v 56.81 l 0.52,-4.71 c 0,12.82 12.83,20.15 35.34,20.15 18.07,0 24.35,-5.23 24.35,-20.15 v -52.1 h -0.26 l -9.69,-7.33 h -10.47 v -22.78 h 61 v 22.78 h -10.47 l -9.95,7.33 v 54.45 c 0,2.36 0,4.45 -0.26,6.55 4.97,7.33 16.23,11.25 32.72,11.25 18.06,0 24.35,-5.23 24.35,-20.15 v -52.1 h -0.26 l -9.69,-7.33 h -10.47 v -22.78 h 60.99 v 22.78 h -10.47 l -9.94,7.33 v 54.45 c 0,30.11 -12.31,46.86 -34.3,46.86 -7.59,0 -17.8,-2.35 -24.87,-5.5 l -19.9,-21.72 c -4.45,17.54 -15.44,27.22 -32.2,27.22 -7.59,0 -17.8,-2.35 -24.87,-5.5 l -21.2,-23.03 v 24.08 l -18.59,7.59 -21.73,-11.25 v -11 l 19.9,-7.07 v -74.87 l -10.74,-7.59 h -11.25 v -23.04 h 62.57"
         style="fill:#ef7749;fill-opacity:1;fill-rule:nonzero;stroke:none"
         transform="matrix(0.13333333,0,0,-0.13333333,0,559.37333)" />
      <path
         id="path33"
         d="m 3170.72,3553.45 c 24.61,0 41.89,-12.3 43.2,-29.84 h -90.32 c 4.19,17.8 22.51,29.84 47.12,29.84 z m 59.69,-69.9 -20.68,4.72 c -7.33,-9.43 -20.68,-14.93 -35.87,-14.93 -25.13,0 -45.55,14.14 -50,33.78 h 108.91 v 16.49 c -3.14,31.41 -31.16,58.64 -61.78,58.64 -35.87,0 -65.45,-29.06 -65.45,-64.4 0,-42.94 25.39,-70.69 64.66,-70.69 32.72,0 51.83,11.52 60.21,36.39"
         style="fill:#ef7749;fill-opacity:1;fill-rule:nonzero;stroke:none"
         transform="matrix(0.13333333,0,0,-0.13333333,0,559.37333)" />
      <path
         id="path34"
         d="m 3321.52,3449.52 v 23.04 h -10.21 l -9.95,7.33 v 54.45 l 0.26,-2.35 c 0,12.82 12.83,20.15 35.34,20.15 22.25,0 35.08,-7.33 35.08,-20.15 v -52.1 h -0.52 l -9.69,-7.33 h -10.47 v -22.78 h 61 v 22.78 h -10.47 l -9.95,7.33 v 54.45 c 0,30.11 -16.23,46.86 -41.63,46.86 -8.9,0 -20.42,-2.35 -28.01,-5.5 l -20.94,-22.77 v 23.82 l -18.59,7.59 -21.73,-11.25 v -11 l 19.9,-7.07 v -74.87 l -10.74,-7.59 h -11.25 v -23.04 h 62.57"
         style="fill:#ef7749;fill-opacity:1;fill-rule:nonzero;stroke:none"
         transform="matrix(0.13333333,0,0,-0.13333333,0,559.37333)" />
      <path
         id="path35"
         d="m 3451.63,3507.38 c 0,-39.53 17.27,-59.69 50.78,-59.69 27.49,0 41.37,27.75 41.37,59.95 h -17.02 c 0,-19.37 -9.69,-31.68 -25.13,-31.68 h -1.57 c -18.07,0 -27.23,8.64 -27.23,31.42 v 42.15 h 64.93 v 25.39 h -64.93 v 48.69 h -21.2 v -48.69 h -23.3 v -25.39 h 23.3 v -42.15"
         style="fill:#ef7749;fill-opacity:1;fill-rule:nonzero;stroke:none"
         transform="matrix(0.13333333,0,0,-0.13333333,0,559.37333)" />
      <path
         id="path36"
         d="m 584.219,3186.94 -14.66,-4.71 c 0,-35.34 17.019,-50.26 56.812,-50.26 34.82,0 52.617,13.87 52.617,41.36 0,43.46 -85.867,29.84 -85.867,54.45 0.52,9.69 10.731,14.14 31.418,14.14 21.723,0 37.43,-11.78 37.691,-28.01 l 14.141,4.19 c 0.258,1.83 0.258,3.92 0.258,7.59 0,29.32 -13.09,40.58 -50,43.19 -36.129,0 -51.57,-11.25 -51.57,-37.69 v -2.62 c 0,-18.85 14.132,-31.15 42.929,-37.18 36.133,-7.85 42.153,-10.99 42.153,-20.68 0,-9.42 -11.262,-14.4 -32.731,-14.4 h -4.449 c -23.301,0.53 -38.742,12.83 -38.742,30.63"
         style="fill:#ef7749;fill-opacity:1;fill-rule:nonzero;stroke:none"
         transform="matrix(0.13333333,0,0,-0.13333333,0,559.37333)" />
      <path
         id="path37"
         d="m 832.66,3202.65 c 0,35.34 -29.582,65.45 -64.398,65.45 -37.442,0 -64.403,-27.49 -64.403,-65.45 0,-44.5 22.77,-69.11 64.141,-69.11 39.27,0 64.66,27.22 64.66,69.11 z m -17.281,-2.35 c 0,-22.26 -19.629,-38.23 -47.117,-38.23 -27.492,0 -47.121,15.97 -47.121,38.23 0,22.25 19.629,38.22 47.121,38.22 27.488,0 47.117,-15.97 47.117,-38.22"
         style="fill:#ef7749;fill-opacity:1;fill-rule:nonzero;stroke:none"
         transform="matrix(0.13333333,0,0,-0.13333333,0,559.37333)" />
      <path
         id="path38"
         d="m 917.48,3135.37 v 23.3 h -10.73 l -9.691,7.33 v 163.88 l -17.797,9.16 -25.403,-11.78 v -11.51 l 23.039,-7.86 V 3166 l -10.468,-7.33 h -11.52 v -23.3 h 62.57"
         style="fill:#ef7749;fill-opacity:1;fill-rule:nonzero;stroke:none"
         transform="matrix(0.13333333,0,0,-0.13333333,0,559.37333)" />
      <path
         id="path39"
         d="m 991.039,3320.46 -22.508,11.78 -23.043,-11.78 v -14.92 l 22.782,-11.79 22.769,11.79 z m -25.91,-149.75 -11,-7.85 H 940.52 v -27.49 h 62.57 v 27.49 h -9.168 l -10.473,7.85 v 89.01 l -16.75,9.43 -21.73,-10.48 v -12.56 l 20.16,-11.26 v -64.14"
         style="fill:#ef7749;fill-opacity:1;fill-rule:nonzero;stroke:none"
         transform="matrix(0.13333333,0,0,-0.13333333,0,559.37333)" />
      <path
         id="path40"
         d="m 1140.79,3201.34 c 0,-22.51 -19.9,-38.48 -47.65,-38.48 -28.01,0 -47.91,15.97 -47.91,38.48 0,21.99 19.9,37.44 47.91,37.44 28.01,0 47.65,-15.45 47.65,-37.44 z m -112.83,-2.35 c 0,-39.8 25.65,-64.93 66.75,-64.93 11.52,0 19.38,1.57 26.18,5.24 l 22.78,21.73 v -25.4 h 41.62 v 23.04 h -10.21 l -10.73,7.85 v 156.82 l -19.63,12.83 -20.69,-12.57 v -12.04 l 19.64,-7.6 v -65.97 l -17.8,21.73 c -7.33,4.71 -22.26,9.16 -31.16,9.16 -39,0 -66.75,-29.05 -66.75,-69.89"
         style="fill:#ef7749;fill-opacity:1;fill-rule:nonzero;stroke:none"
         transform="matrix(0.13333333,0,0,-0.13333333,0,559.37333)" />
      <path
         id="path41"
         d="m 1274.83,3134.59 22.51,24.87 v -23.83 h 39.01 v 21.73 h -10.21 l -7.07,5.76 v 73.83 c 0,20.42 -21.99,34.29 -48.69,34.29 -11,0 -20.95,-6.02 -27.75,-12.04 l -15.19,-14.66 12.04,-8.38 c 7.6,4.19 23.83,9.43 34.04,9.43 14.92,0 23.82,-5.5 23.82,-14.93 v -15.44 l -38.74,-1.05 c -1.84,0 -8.38,-0.79 -12.83,-1.57 -23.83,-3.93 -35.61,-16.23 -35.61,-37.44 0,-27.48 17.02,-41.88 49.48,-41.88 4.45,0 9.69,0.52 15.19,1.31 z m -46.08,47.38 v 3.14 c 0,8.64 18.06,13.61 50.26,13.61 h 18.33 v -20.15 c -2.88,-8.9 -17.02,-15.45 -35.34,-15.45 -19.9,0 -33.25,7.59 -33.25,18.85"
         style="fill:#ef7749;fill-opacity:1;fill-rule:nonzero;stroke:none"
         transform="matrix(0.13333333,0,0,-0.13333333,0,559.37333)" />
      <path
         id="path42"
         d="m 1409.65,3320.46 -22.52,11.78 -23.03,-11.78 v -14.92 l 22.77,-11.79 22.78,11.79 z m -25.92,-149.75 -10.99,-7.85 h -13.62 v -27.49 h 62.57 v 27.49 h -9.16 l -10.47,7.85 v 89.01 l -16.76,9.43 -21.73,-10.48 v -12.56 l 20.16,-11.26 v -64.14"
         style="fill:#ef7749;fill-opacity:1;fill-rule:nonzero;stroke:none"
         transform="matrix(0.13333333,0,0,-0.13333333,0,559.37333)" />
      <path
         id="path43"
         d="m 1511.75,3135.37 v 23.04 h -10.21 l -9.95,7.33 v 54.45 l 0.26,-2.35 c 0,12.82 12.83,20.15 35.34,20.15 h 4.19 c 9.69,-0.52 18.07,-3.14 23.83,-7.07 l 11.51,28.8 c -6.54,5.5 -15.44,8.38 -25.91,8.38 -2.88,0 -6.02,-0.26 -9.43,-0.79 -6.28,-0.78 -14.13,-3.14 -18.85,-5.76 l -20.94,-22.77 v 23.82 l -18.59,7.59 -21.73,-11.25 v -11 l 19.9,-7.07 V 3166 l -10.73,-7.59 h -11.26 v -23.04 h 62.57"
         style="fill:#ef7749;fill-opacity:1;fill-rule:nonzero;stroke:none"
         transform="matrix(0.13333333,0,0,-0.13333333,0,559.37333)" />
      <path
         id="path44"
         d="m 1648.93,3239.3 c 24.61,0 41.88,-12.3 43.19,-29.84 h -90.32 c 4.19,17.8 22.52,29.84 47.13,29.84 z m 59.69,-69.9 -20.69,4.72 c -7.33,-9.43 -20.68,-14.93 -35.86,-14.93 -25.13,0 -45.55,14.14 -50,33.78 h 108.9 v 16.49 c -3.14,31.41 -31.15,58.64 -61.78,58.64 -35.87,0 -65.45,-29.06 -65.45,-64.4 0,-42.94 25.39,-70.69 64.66,-70.69 32.73,0 51.84,11.52 60.22,36.39"
         style="fill:#ef7749;fill-opacity:1;fill-rule:nonzero;stroke:none"
         transform="matrix(0.13333333,0,0,-0.13333333,0,559.37333)" />
      <path
         id="path45"
         d="m 3937.52,1090.49 465.37,14.47 352.04,381.71 81.17,379.71 -507.16,409.42 -371.88,-163.62 -148.4,128.48 103.26,207.1 499.19,-78.84 59.14,330.2 -770.96,99.83 -240.74,-636.17 404.14,-386.24 406.88,115.38 205.7,-186.2 -235.69,-288.35 -384.52,2.29 82.46,-329.17"
         style="fill:#ef7749;fill-opacity:1;fill-rule:evenodd;stroke:none"
         transform="matrix(0.13333333,0,0,-0.13333333,0,559.37333)" />
      <path
         id="path46"
         d="m 2469.66,1025.71 -26.39,1773.24 h 570.14 l 234.31,-330.74 -242.12,-375.27 359.27,-180.61 187.44,-435 -359.26,-451.62 h -723.39"
         style="fill:#ef7749;fill-opacity:1;fill-rule:evenodd;stroke:none"
         transform="matrix(0.13333333,0,0,-0.13333333,0,559.37333)" />
    </g>
  </g>
</svg>
